<svg width="512" height="512" xmlns="http://www.w3.org/2000/svg"><title>background</title><path fill="none" d="M-1-1h582v402H-1z"/><g><title>Layer 1</title><g stroke="null"><g fill="#ffb972"><path d="M147350.912 150346.789c-7-13 17-24 40-19 9 1 16 8 16 13 0 14-48 19-56 6zM147615.912 150285.789c0-6 3-9 8-9 4 1 10 0 15-1 4-1 12-4 17-5 6-1 11-3 13-4 10-9 47-9 47-1 0 6-3 9-7 9-5-1-11 0-15 1-5 1-12 4-18 5-5 1-11 3-12 4-11 9-48 9-48 1zM148040.912 150126.789c-3-6 3-15 14-21 12-6 22-6 26-1 3 6-3 15-14 21-12 6-22 6-26 1zM148230.912 150035.789c-3-5 12-18 34-30 23-11 42-16 46-10 3 5-12 18-34 30-23 11-42 16-46 10zM147511.912 149560.789c4-8 12-15 20-15s11 6 8 15c-4 8-12 15-20 15s-11-6-8-15zM149391.912 149297.789c-3-6 1-15 8-21 8-7 17-8 20-3 3 6-1 15-8 21-8 7-17 8-20 3zM149491.912 149197.789c-3-6 1-15 8-21 8-7 17-8 20-3 3 6-1 15-8 21-8 7-17 8-20 3zM149551.912 148590.789c-3-9 0-15 8-15s16 7 20 15c3 9 0 15-8 15s-16-7-20-15zM149346.912 148301.789c-7-8-8-17-3-20 6-3 15 1 21 8 7 8 8 17 3 20-6 3-15-1-21-8zM149306.912 148261.789c-7-8-8-17-3-20 6-3 15 1 21 8 7 8 8 17 3 20-6 3-15-1-21-8zM148889.912 148013.789c-3-4 6-7 20-6 15 1 26 6 26 10 0 9-40 6-46-4z" transform="matrix(.12287 0 0 .11489 -18073.009 -16864.65)"/></g><g fill="#fbe9d3"><path d="M147312.912 150334.789c-15-11-26-23-25-27s-2-15-6-24c-10-22-4-64 9-58 6 3 10 19 11 36 1 39 10 53 41 65 13 5 21 13 18 19-9 15-19 12-48-11zM147400.912 150345.789c-8-13 20-24 41-16 20 8 9 26-16 26-10 0-22-5-25-10zM147470.912 150336.789c-6-11 13-26 22-17 3 3 12 1 19-4 6-6 16-10 20-9 5 1 22-3 37-9 15-7 31-11 35-11 4 1 10 0 15-1 4-1 12-4 17-5 6-1 12-4 15-5s10-4 15-5c6-1 12-4 15-5s8-3 13-4c4-1 17-7 30-14 12-7 22-10 22-6 0 3 7 1 15-6s15-10 15-6 12-2 27-11c15-10 30-18 33-17 3 0 25-8 49-19 24-10 49-20 55-21s29-12 51-23 43-21 48-22c4 0 47-21 97-46 49-25 92-40 95-35 5 8-169 104-177 99-2-1-21 7-43 18-22 12-44 22-50 24-5 1-30 11-54 22-24 10-49 20-55 21s-21 8-33 14c-13 7-23 10-23 6 0-3-7-1-15 6s-15 10-15 6-10 0-22 8c-13 8-26 15-30 16-5 0-10 1-13 1-3 1-9 3-15 4-5 1-12 4-15 5s-9 4-15 5c-5 1-12 4-15 5s-8 3-12 5c-5 1-21 7-36 13-16 7-32 10-37 7s-12 0-15 6c-4 5-13 8-21 5-7-3-16-1-19 4-8 13-22 13-30 1zM147290.912 150175.789c-4-6-2-17 4-24s8-16 4-19c-3-4-1-13 5-20 7-8 9-17 5-20-3-4 0-13 7-22 7-8 9-15 5-15s-2-6 4-13c6-8 8-16 5-19s2-23 11-44c9-22 16-41 16-44 1-3 5-11 11-17 6-7 7-13 3-13s-2-7 5-15 9-15 5-15 0-11 9-25 14-25 10-25c-3 0 1-11 10-25s14-25 10-25c-3 0 1-11 10-25s14-25 11-25 1-13 10-30c8-16 16-33 16-37 1-5 10-26 22-48 11-22 19-41 18-43-5-9 201-402 209-397 5 3-35 96-90 205-55 110-101 203-101 207-1 5-10 26-22 48-11 22-19 41-18 43 1 1-6 16-14 32s-16 33-16 37c0 5-7 18-15 31-8 12-12 22-8 22 3 0-1 11-10 25s-14 25-11 25 0 10-7 23c-7 12-13 25-14 30-1 4-3 9-4 12s-4 10-5 15c-1 6-3 11-4 13-2 1-4 12-6 23-3 12-10 34-16 50-7 16-13 32-13 36-1 3-4 9-8 13s-4 13-2 20c3 7 1 16-5 19-6 4-8 13-5 20 3 8 1 17-5 20-6 4-8 13-5 20 7 17-12 30-21 16zM148311.912 149996.789c-3-5 50-39 119-75 146-77 139-74 142-61 4 14-254 148-261 136zM148590.912 149845.789c-3-5 8-16 24-25 18-9 32-11 36-5 3 5-8 16-24 25-18 9-32 11-36 5zM148661.912 149806.789c-3-5 13-21 37-34 54-32 62-35 64-22 2 14-94 68-101 56zM148780.912 149736.789c-3-6 3-15 14-21 12-6 22-6 26-1 3 6-3 15-14 21-12 6-22 6-26 1zM148831.912 149706.789c-7-11 55-52 68-44 5 3 0 12-10 20-34 26-53 33-58 24zM148971.912 149616.789c-3-5 5-16 19-25 24-16 45-6 22 11-24 19-36 23-41 14zM149091.912 149536.789c-4-5 7-19 23-30 16-12 32-17 35-12 4 5-7 19-23 30-16 12-32 17-35 12zM149161.912 149487.789c-3-6 1-15 8-21 8-7 17-8 20-3 3 6-1 15-8 21-8 7-17 8-20 3zM149201.912 149457.789c-3-6 1-15 8-21 8-7 17-8 20-3 3 6-1 15-8 21-8 7-17 8-20 3zM149241.912 149427.789c-3-6 1-15 8-21 8-7 17-8 20-3 3 6-1 15-8 21-8 7-17 8-20 3zM149290.912 149385.789c-7-11 24-42 35-35 12 7 2 32-15 39-8 3-17 1-20-4zM149350.912 149335.789c-3-5 4-19 15-30 24-24 45-18 30 9-11 22-37 34-45 21zM149510.912 149175.789c-7-11 24-42 35-35 5 3 7 12 4 20-7 17-32 27-39 15zM147722.912 149159.789c-9-10 42-106 53-99 6 4-1 27-15 56-27 51-28 53-38 43zM149551.912 149127.789c-3-6 1-15 8-21 8-7 17-8 20-3 3 6-1 15-8 21-8 7-17 8-20 3zM149602.912 149059.789c-3-4 1-21 10-38 10-17 16-36 15-43-3-16 15-26 23-13 4 6 1 17-5 25-7 8-10 15-6 15s0 14-9 30c-17 32-18 33-28 24zM147782.912 149049.789c-9-10 22-66 33-59 6 4 4 18-5 36-17 31-18 32-28 23zM147822.912 148978.789c-8-13 53-114 64-107 6 3-2 26-17 52-33 57-40 66-47 55zM149640.912 148933.789c-9-24-2-93 10-93 14 0 19 85 6 98-7 7-12 5-16-5zM147892.912 148858.789c-4-6 0-18 7-28 8-11 16-14 19-8 4 6 0 18-7 28-8 11-16 14-19 8zM147922.912 148809.789c-8-13 33-75 44-68 9 5 2 24-24 58-8 10-17 15-20 10zM149630.912 148805.789c-4-6-3-16 3-22s12-6 17 2c4 6 3 16-3 22s-12 6-17-2zM149616.912 148748.789c1-5 0-11-1-15-1-5-4-12-5-18-1-5-4-12-5-15s-3-8-4-12c-1-5-10-23-19-40-15-28-15-33-3-33s24 19 32 53c1 4 3 9 4 12s4 10 5 15c1 6 3 11 4 13 9 10 9 47 1 47-6 0-9-3-9-7zM147991.912 148697.789c-7-12 83-144 94-137 5 3-11 37-37 75-49 74-49 75-57 62zM149527.912 148540.789c-17-36 4-41 23-5 13 24 13 30 2 30-8 0-19-11-25-25zM148111.912 148517.789c-3-6 1-15 8-21 8-7 17-8 20-3 3 6-1 15-8 21-8 7-17 8-20 3zM149491.912 148480.789c-16-24-6-45 11-22 19 24 23 36 14 41-5 3-16-5-25-19zM148161.912 148447.789c-3-6 1-15 8-21 8-7 17-8 20-3 3 6-1 15-8 21-8 7-17 8-20 3zM149456.912 148431.789c-7-8-8-17-3-20 6-3 15 1 21 8 7 8 8 17 3 20-6 3-15-1-21-8zM148201.912 148397.789c-3-6 1-15 8-21 8-7 17-8 20-3 3 6-1 15-8 21-8 7-17 8-20 3zM149426.912 148391.789c-7-8-8-17-3-20 6-3 15 1 21 8 7 8 8 17 3 20-6 3-15-1-21-8zM148230.912 148355.789c-3-4 2-16 11-24 18-18 36-13 28 9-7 17-32 27-39 15zM149380.912 148340.789c-29-28-25-51 5-35 11 6 24 19 30 30 16 30-7 34-35 5zM148270.912 148305.789c-3-5 4-19 15-30 24-24 45-18 30 9-11 22-37 34-45 21zM149275.912 148235.789c-11-11-18-25-15-30 8-13 34-1 45 21 15 27-6 33-30 9zM148361.912 148206.789c-7-11 29-57 54-71 28-15 33 4 9 34-25 31-56 50-63 37zM149210.912 148181.789c-15-13-24-25-19-29 6-3 23 4 39 17 15 13 24 25 19 29-6 3-23-4-39-17zM149146.912 148136.789c-14-11-19-21-13-25 5-3 20 2 33 12 29 24 11 36-20 13zM148470.912 148105.789c-7-11 24-42 35-35 12 7 2 32-15 39-8 3-17 1-20-4zM149013.912 148066.789c-54-27-98-46-98-43s-5 1-11-5-17-9-24-7c-16 7-29-12-15-21 6-4 18-1 27 7 9 7 18 12 20 11 1-2 4-3 6-2 1 0 12 2 25 5 39 7 183 84 177 94-3 6-7 10-8 9-1 0-46-22-99-48zM148520.912 148065.789c-6-10 63-60 87-64 7-1 19-5 26-9 6-5 12-5 12-1 0 3 7 1 15-6 8-6 19-9 25-5 14 9 1 28-15 21-7-2-18 1-24 7s-11 8-11 4-25 8-55 27c-30 20-57 31-60 26zM148810.912 147996.789c-7-12 12-24 25-16 11 7 4 25-10 25-5 0-11-4-15-9z" transform="matrix(.12287 0 0 .11489 -18073.009 -16864.65)"/></g><g fill="#d5edcf"><path d="M149980.912 148465.789c-3-5 0-13 8-16 23-9 152 0 152 11 0 14-151 19-160 5zM149910.912 148455.789c-8-12 20-24 35-15 6 3 8 11 5 16-8 12-32 12-40-1zM150160.912 148456.789c-6-11 13-26 22-17 3 3 12 1 20-5 7-6 13-8 13-4s6 2 14-4c10-8 16-9 21-1 3 5 4 11 1 11-16 4-26 7-31 9-3 1-9 3-14 4-5 0-13 4-17 9-10 10-22 9-29-2zM149860.912 148446.789c-7-12 12-24 25-16 11 7 4 25-10 25-5 0-11-4-15-9zM149779.912 148426.789c-3-3-10-7-15-7-5-1-10-2-11-3-2-2-14-4-27-7-13-2-59-23-102-46-92-49-110-76-88-134 8-20 19-35 24-34 6 1 8 7 7 13-16 53-14 78 9 99 21 18 163 91 181 93 3 0 9 3 13 7s13 4 20 2c7-3 16 0 20 5 3 6 10 9 15 6s11-1 14 4c7 10-50 12-60 2zM150331.912 148327.789c-3-5 1-17 8-28 8-10 12-24 9-30-6-15 14-28 22-14 3 5 3 16-2 23-4 6-8 18-10 26-3 20-20 35-27 23zM150360.912 148212.789c-9-22-2-62 10-60 6 1 11 14 13 29 4 32-14 56-23 31zM149571.912 148177.789c-3-5 2-20 12-33 24-29 36-11 13 20-11 14-21 19-25 13zM149610.912 148115.789c-7-11 24-42 35-35 12 7 2 32-15 39-8 3-17 1-20-4zM150350.912 148105.789c-4-6-3-16 3-22s12-6 17 2c4 6 3 16-3 22s-12 6-17-2zM149304.912 148069.789c-15-7-29-20-32-28-11-28 11-26 43 3 36 32 29 47-11 25zM149360.912 148075.789c-3-5 2-13 12-17 10-3 33-12 50-19 41-16 54 0 16 19-44 23-71 29-78 17zM149670.912 148045.789c-8-13 52-73 65-65 14 8-7 42-37 62-15 10-23 11-28 3zM150337.912 148048.789c3-11-51-113-68-131-16-16-10-34 9-26 16 6 66 103 73 139 2 14 0 25-6 25-5 0-9-3-8-7zM149471.912 148026.789c-3-5 12-20 34-35 44-29 66-18 23 12-44 30-51 33-57 23zM149247.912 148002.789c-34-43-127-270-117-287 3-5 0-12-6-15-5-4-8-13-5-21 3-7 1-16-5-20-6-3-8-12-5-19 2-7 0-17-6-23-12-12-1-35 13-26 6 3 8 12 5 20-3 7-1 16 5 20 6 3 8 12 5 20-3 7-1 16 5 19 5 4 9 12 8 18-1 7 1 19 4 27s20 52 36 98c16 45 43 107 59 137 17 30 27 57 22 60-4 3-12-1-18-8zM149560.912 147965.789c-3-4 2-16 11-24 18-18 36-13 28 9-7 17-32 27-39 15zM149770.912 147955.789c-3-4 2-16 11-24 18-18 36-13 28 9-7 17-32 27-39 15zM149610.912 147925.789c-7-11 125-154 157-171 11-6 19-5 23 1 7 11-125 154-157 171-11 6-19 5-23-1zM149821.912 147917.789c-3-6 1-15 8-21 8-7 17-8 20-3 3 6-1 15-8 21-8 7-17 8-20 3zM149861.912 147886.789c-7-10 70-60 101-66 10-2 18-4 18-5s13-4 30-6c16-3 26-2 21 3-4 4-12 9-17 9-5 1-11 3-14 4s-8 3-12 4c-11 2-73 36-100 53-13 9-23 10-27 4zM150177.912 147838.789c-23-14-40-29-37-34 6-9 79 23 89 40 13 20-10 17-52-6zM150050.912 147805.789c-3-5 0-13 9-16 21-8 61-1 61 11 0 14-62 19-70 5zM149800.912 147725.789c-3-4 2-16 11-24 18-18 36-13 28 9-7 17-32 27-39 15zM149842.912 147679.789c-3-6 4-23 17-39 13-15 25-24 29-19 3 6-4 23-17 39-13 15-25 24-29 19zM149892.912 147608.789c-4-6 0-18 7-28 8-11 16-14 19-8 4 6 0 18-7 28-8 11-16 14-19 8zM149089.912 147561.789c-4-10-2-22 4-28 8-8 13-7 18 6 4 10 2 22-4 28-8 8-13 7-18-6zM149922.912 147559.789c-3-4 6-30 20-58 15-28 28-54 29-58 1-5 3-11 4-15 1-5 2-11 1-15 0-5 3-8 9-8 11 0 9 28-3 48-5 6-6 12-2 12 3 0-6 23-20 50-27 52-28 54-38 44zM149079.912 147501.789c-4-10-2-22 4-28 8-8 13-7 18 6 4 10 2 22-4 28-8 8-13 7-18-6zM149070.912 147413.789c-9-24-1-143 10-143 13 0 19 135 6 148-7 7-12 5-16-5zM149990.912 147375.789c-4-6-3-16 3-22s12-6 17 2c4 6 3 16-3 22s-12 6-17-2zM149990.912 147263.789c-3-8-5-19-3-24 3-11-40-93-58-112-16-16-10-34 10-26 11 4 59 92 62 113 0 3 4 14 9 24 4 11 3 23-3 29-8 8-13 7-17-4zM149079.912 147221.789c-4-10-2-22 4-28 8-8 13-7 18 6 4 10 2 22-4 28-8 8-13 7-18-6zM149099.912 147143.789c3-13 5-23 6-23s3-8 5-18c5-28 35-68 45-62 5 3-2 24-15 45-14 22-22 40-19 40 4 0 1 6-5 13-6 8-8 17-4 20 3 4 1 7-5 7-7 0-10-10-8-22zM149856.912 147051.789c-7-8-8-17-3-20 6-3 15 1 21 8 7 8 8 17 3 20-6 3-15-1-21-8zM149160.912 147025.789c-7-11 24-42 35-35 12 7 2 32-15 39-8 3-17 1-20-4zM149763.912 146994.789c-38-20-68-35-68-32s-7 0-15-7-15-9-15-4c0 4-5 3-11-3s-17-9-24-7c-7 3-16 1-19-4-3-6-15-8-25-5s-22 0-26-6c-9-16 22-26 39-12 7 6 16 8 19 4 4-3 13 0 22 7 8 7 15 9 15 5s7-2 15 5 15 9 15 5 7-2 15 5 15 10 15 6c0-8 117 51 124 63 14 22-13 15-76-20zM149209.912 146984.789c-9-15 111-77 124-65 3 3 11 1 18-5 16-13 48-4 39 11-4 6-14 10-23 9-22-2-55 9-108 36-25 12-47 19-50 14zM149420.912 146915.789c-3-5 0-13 8-16 23-8 92 0 92 11 0 14-92 19-100 5z" transform="matrix(.12287 0 0 .11489 -18073.009 -16864.65)"/></g><g fill="#43b02a"><path d="M149915.912 148458.789c-125-21-282-79-348-130-32-24-34-28-30-74 7-65 57-141 167-249 195-193 366-256 497-181 59 34 94 77 136 167 25 55 32 83 36 159 8 166-44 265-159 299-50 15-231 20-299 9zM149292.912 148055.789c-45-39-98-142-141-271-59-176-71-253-71-444 1-154 3-176 24-229 52-131 158-195 337-204 128-6 224 14 334 69 343 172 313 502-82 885-112 109-205 177-280 206-65 25-82 23-121-12z" transform="matrix(.12287 0 0 .11489 -18073.009 -16864.65)"/></g><path d="M147303.912 150328.789c-126-139 390-1266 872-1908 178-237 349-396 462-430 189-56 502 69 717 286 127 128 248 330 285 475 20 77 21 199 2 253-88 247-632 654-1366 1020-260 130-417 197-615 264-127 42-165 51-245 55-85 4-97 2-112-15z" transform="matrix(.12287 0 0 .11489 -18073.009 -16864.65)" fill="#ff8200"/></g><g stroke="null"><path stroke-width="1.5" d="M139.5 474.718l66.187-225.027h220.626L492.5 474.718h-353z"/><text fill="#fff" stroke-width="0" x="280.607" y="273.959" font-size="24" font-family="Helvetica, Arial, sans-serif" font-weight="bold" transform="translate(-1103.362 -923.655) scale(4.81795)">kg</text><path d="M257.047 251.226c0-29.643 26.395-53.673 58.953-53.673 15.635 0 30.63 5.655 41.686 15.72 11.057 10.066 17.267 23.718 17.267 37.954 0 29.642-26.393 53.673-58.953 53.673-32.558 0-58.953-24.031-58.953-53.674zm29.477 0c0 14.822 13.197 26.837 29.476 26.837s29.477-12.016 29.477-26.837c0-14.822-13.197-26.837-29.477-26.837s-29.476 12.016-29.476 26.837z"/></g></g></svg>